<mxfile>
    <diagram id="LNP9S4-BVpzVc-00VTwb" name="Page-1">
        <mxGraphModel dx="586" dy="603" grid="1" gridSize="10" guides="1" tooltips="1" connect="1" arrows="1" fold="1" page="1" pageScale="1" pageWidth="850" pageHeight="1100" math="0" shadow="0">
            <root>
                <mxCell id="0"/>
                <mxCell id="1" parent="0"/>
                <mxCell id="8" value="2014" style="shape=ext;double=1;rounded=0;whiteSpace=wrap;html=1;shadow=0;sketch=0;fillColor=#f5f5f5;strokeColor=#666666;fontColor=#333333;" parent="1" vertex="1">
                    <mxGeometry x="720" y="160" width="320" height="30" as="geometry"/>
                </mxCell>
                <mxCell id="17" value="2012" style="shape=ext;double=1;rounded=0;whiteSpace=wrap;html=1;shadow=0;sketch=0;fillColor=#f5f5f5;strokeColor=#666666;fontColor=#333333;" parent="1" vertex="1">
                    <mxGeometry y="160" width="320" height="30" as="geometry"/>
                </mxCell>
                <mxCell id="26" value="2010" style="shape=ext;double=1;rounded=0;whiteSpace=wrap;html=1;shadow=0;sketch=0;fillColor=#f5f5f5;strokeColor=#666666;fontColor=#333333;" parent="1" vertex="1">
                    <mxGeometry x="720" width="320" height="30" as="geometry"/>
                </mxCell>
                <mxCell id="30" value="AngularJS" style="html=1;whiteSpace=wrap;shape=isoCube2;backgroundOutline=1;isoAngle=15;shadow=0;sketch=0;fillColor=#f5f5f5;strokeColor=#666666;fontColor=#333333;" parent="1" vertex="1">
                    <mxGeometry x="720" y="40" width="60" height="70" as="geometry"/>
                </mxCell>
                <mxCell id="32" value="2013" style="shape=ext;double=1;rounded=0;whiteSpace=wrap;html=1;shadow=0;sketch=0;fillColor=#f5f5f5;strokeColor=#666666;fontColor=#333333;" parent="1" vertex="1">
                    <mxGeometry x="360" y="160" width="320" height="30" as="geometry"/>
                </mxCell>
                <mxCell id="34" value="React" style="html=1;whiteSpace=wrap;shape=isoCube2;backgroundOutline=1;isoAngle=15;shadow=0;sketch=0;fillColor=#f5f5f5;strokeColor=#666666;fontColor=#333333;" parent="1" vertex="1">
                    <mxGeometry x="440" y="200" width="60" height="70" as="geometry"/>
                </mxCell>
                <mxCell id="36" value="2015" style="shape=ext;double=1;rounded=0;whiteSpace=wrap;html=1;shadow=0;sketch=0;fillColor=#f5f5f5;strokeColor=#666666;fontColor=#333333;" parent="1" vertex="1">
                    <mxGeometry x="1080" y="160" width="320" height="30" as="geometry"/>
                </mxCell>
                <mxCell id="39" value="Redux" style="html=1;whiteSpace=wrap;shape=isoCube2;backgroundOutline=1;isoAngle=15;shadow=0;sketch=0;fillColor=#f5f5f5;strokeColor=#666666;fontColor=#333333;" parent="1" vertex="1">
                    <mxGeometry x="1080" y="200" width="60" height="70" as="geometry"/>
                </mxCell>
                <mxCell id="40" value="Vue.js" style="html=1;whiteSpace=wrap;shape=isoCube2;backgroundOutline=1;isoAngle=15;shadow=0;sketch=0;fillColor=#f5f5f5;strokeColor=#666666;fontColor=#333333;" parent="1" vertex="1">
                    <mxGeometry x="720" y="200" width="60" height="70" as="geometry"/>
                </mxCell>
                <mxCell id="42" value="2017" style="shape=ext;double=1;rounded=0;whiteSpace=wrap;html=1;shadow=0;sketch=0;fillColor=#f5f5f5;strokeColor=#666666;fontColor=#333333;" parent="1" vertex="1">
                    <mxGeometry x="360" y="320" width="320" height="30" as="geometry"/>
                </mxCell>
                <mxCell id="44" value="Gatsby" style="html=1;whiteSpace=wrap;shape=isoCube2;backgroundOutline=1;isoAngle=15;shadow=0;sketch=0;fillColor=#f5f5f5;strokeColor=#666666;fontColor=#333333;" parent="1" vertex="1">
                    <mxGeometry x="360" y="360" width="60" height="70" as="geometry"/>
                </mxCell>
                <mxCell id="45" value="GraphQL" style="html=1;whiteSpace=wrap;shape=isoCube2;backgroundOutline=1;isoAngle=15;shadow=0;sketch=0;fillColor=#f5f5f5;strokeColor=#666666;fontColor=#333333;" parent="1" vertex="1">
                    <mxGeometry x="1150" y="200" width="60" height="70" as="geometry"/>
                </mxCell>
                <mxCell id="47" value="2018" style="shape=ext;double=1;rounded=0;whiteSpace=wrap;html=1;shadow=0;sketch=0;fillColor=#f5f5f5;strokeColor=#666666;fontColor=#333333;" parent="1" vertex="1">
                    <mxGeometry x="720" y="320" width="320" height="30" as="geometry"/>
                </mxCell>
                <mxCell id="49" value="Deno" style="html=1;whiteSpace=wrap;shape=isoCube2;backgroundOutline=1;isoAngle=15;shadow=0;sketch=0;fillColor=#f5f5f5;strokeColor=#666666;fontColor=#333333;" parent="1" vertex="1">
                    <mxGeometry x="720" y="360" width="60" height="70" as="geometry"/>
                </mxCell>
                <mxCell id="50" value="&lt;font style=&quot;font-size: 11px&quot;&gt;Backbone.js&lt;/font&gt;" style="html=1;whiteSpace=wrap;shape=isoCube2;backgroundOutline=1;isoAngle=15;shadow=0;sketch=0;fillColor=#f5f5f5;strokeColor=#666666;fontColor=#333333;" parent="1" vertex="1">
                    <mxGeometry x="800" y="40" width="60" height="70" as="geometry"/>
                </mxCell>
                <mxCell id="56" value="2011" style="shape=ext;double=1;rounded=0;whiteSpace=wrap;html=1;shadow=0;sketch=0;fillColor=#f5f5f5;strokeColor=#666666;fontColor=#333333;" parent="1" vertex="1">
                    <mxGeometry x="1080" width="320" height="30" as="geometry"/>
                </mxCell>
                <mxCell id="59" value="Ember.js" style="html=1;whiteSpace=wrap;shape=isoCube2;backgroundOutline=1;isoAngle=15;shadow=0;sketch=0;fillColor=#f5f5f5;strokeColor=#666666;fontColor=#333333;" parent="1" vertex="1">
                    <mxGeometry x="1080" y="40" width="60" height="70" as="geometry"/>
                </mxCell>
                <mxCell id="62" value="JAMStack" style="ellipse;shape=cloud;whiteSpace=wrap;html=1;shadow=0;sketch=0;fillColor=#f5f5f5;align=center;strokeColor=#666666;fontColor=#333333;" parent="1" vertex="1">
                    <mxGeometry x="380" y="350" width="80" height="40" as="geometry"/>
                </mxCell>
                <mxCell id="64" value="2016" style="shape=ext;double=1;rounded=0;whiteSpace=wrap;html=1;shadow=0;sketch=0;fillColor=#f5f5f5;strokeColor=#666666;fontColor=#333333;" parent="1" vertex="1">
                    <mxGeometry y="320" width="320" height="30" as="geometry"/>
                </mxCell>
                <mxCell id="68" value="PWA" style="html=1;whiteSpace=wrap;shape=isoCube2;backgroundOutline=1;isoAngle=15;shadow=0;sketch=0;fillColor=#f5f5f5;strokeColor=#666666;fontColor=#333333;" parent="1" vertex="1">
                    <mxGeometry y="360" width="60" height="70" as="geometry"/>
                </mxCell>
                <mxCell id="69" value="AMP" style="html=1;whiteSpace=wrap;shape=isoCube2;backgroundOutline=1;isoAngle=15;shadow=0;sketch=0;fillColor=#f5f5f5;strokeColor=#666666;fontColor=#333333;" parent="1" vertex="1">
                    <mxGeometry x="70" y="360" width="60" height="70" as="geometry"/>
                </mxCell>
                <mxCell id="70" value="App Shell" style="ellipse;shape=cloud;whiteSpace=wrap;html=1;shadow=0;sketch=0;fillColor=#f5f5f5;align=center;strokeColor=#666666;fontColor=#333333;" parent="1" vertex="1">
                    <mxGeometry x="20" y="340" width="80" height="40" as="geometry"/>
                </mxCell>
                <mxCell id="71" value="Hugo" style="html=1;whiteSpace=wrap;shape=isoCube2;backgroundOutline=1;isoAngle=15;shadow=0;sketch=0;fillColor=#f5f5f5;strokeColor=#666666;fontColor=#333333;" parent="1" vertex="1">
                    <mxGeometry x="520" y="200" width="60" height="70" as="geometry"/>
                </mxCell>
                <mxCell id="73" value="2009" style="shape=ext;double=1;rounded=0;whiteSpace=wrap;html=1;shadow=0;sketch=0;fillColor=#f5f5f5;strokeColor=#666666;fontColor=#333333;" parent="1" vertex="1">
                    <mxGeometry x="360" width="320" height="30" as="geometry"/>
                </mxCell>
                <mxCell id="74" value="Node.js" style="html=1;whiteSpace=wrap;shape=isoCube2;backgroundOutline=1;isoAngle=15;shadow=0;sketch=0;fillColor=#f5f5f5;strokeColor=#666666;fontColor=#333333;" parent="1" vertex="1">
                    <mxGeometry x="360" y="40" width="60" height="70" as="geometry"/>
                </mxCell>
                <mxCell id="80" value="2006" style="shape=ext;double=1;rounded=0;whiteSpace=wrap;html=1;shadow=0;sketch=0;fillColor=#f5f5f5;strokeColor=#666666;fontColor=#333333;" parent="1" vertex="1">
                    <mxGeometry width="320" height="30" as="geometry"/>
                </mxCell>
                <mxCell id="81" value="jQuery" style="html=1;whiteSpace=wrap;shape=isoCube2;backgroundOutline=1;isoAngle=15;shadow=0;sketch=0;fillColor=#f5f5f5;strokeColor=#666666;fontColor=#333333;" parent="1" vertex="1">
                    <mxGeometry y="40" width="60" height="70" as="geometry"/>
                </mxCell>
                <mxCell id="82" value="Bower" style="html=1;whiteSpace=wrap;shape=isoCube2;backgroundOutline=1;isoAngle=15;shadow=0;sketch=0;fillColor=#f5f5f5;strokeColor=#666666;fontColor=#333333;" parent="1" vertex="1">
                    <mxGeometry y="200" width="60" height="70" as="geometry"/>
                </mxCell>
                <mxCell id="83" value="npm" style="html=1;whiteSpace=wrap;shape=isoCube2;backgroundOutline=1;isoAngle=15;shadow=0;sketch=0;fillColor=#f5f5f5;strokeColor=#666666;fontColor=#333333;" parent="1" vertex="1">
                    <mxGeometry x="360" y="200" width="60" height="70" as="geometry"/>
                </mxCell>
            </root>
        </mxGraphModel>
    </diagram>
</mxfile>